PathFileType	4	(X/Y/Z)	C:\Users\WrightLab\Desktop\Jo\P3_10.trc
DataRate	CameraRate	NumFrames	NumMarkers	Units	OrigDataRate	OrigDataStartFrame	OrigNumFrames
100.00	100.00	       8	19	mm	100.00	475	       633
Frame#	Time	Headset_Front			Headset_Back			Headset_Left			Headset_Right			Left_Shoulder			Right_Shoulder			Sternum			C7			Left Elbow			Right Elbow			Left Wrist			Right Wrist			Left ASIS			Right ASIS			S2			Left Knee			Right Knee			Left Ankle			Right Ankle			
		X1	Y1	Z1	X2	Y2	Z2	X3	Y3	Z3	X4	Y4	Z4	X5	Y5	Z5	X6	Y6	Z6	X7	Y7	Z7	X8	Y8	Z8	X9	Y9	Z9	X10	Y10	Z10	X11	Y11	Z11	X12	Y12	Z12	X13	Y13	Z13	X14	Y14	Z14	X15	Y15	Z15	X16	Y16	Z16	X17	Y17	Z17	X18	Y18	Z18	X19	Y19	Z19	

475	4.740	-34.23579	1582.84875	2353.65942	145.72942	1625.64063	2253.60791							247.48409	1382.46814	2260.67065	-75.60661	1391.85571	2106.95142	37.74645	1270.06592	2305.58179				319.11160	1066.97253	2344.31348	-153.73666	1049.88647	2065.90308	259.10773	905.76379	2460.99170	-192.06578	878.73364	2219.74780	158.80719	907.57635	2310.97607	-80.08348	905.95288	2232.38232				199.37769	493.38071	2187.52856	-76.64435	500.26727	2322.84424	-58.37096	178.92149	2410.73584	195.36284	171.65944	2125.36792	
476	4.750	-37.98648	1581.25562	2357.85107	143.04784	1624.73303	2259.10474							244.55287	1381.28967	2266.50513	-77.79923	1390.71375	2111.64331	35.00790	1269.50122	2310.71924				315.92261	1065.38977	2350.24121				254.53801	906.37134	2470.38867	-193.60786	875.56036	2222.21533	155.93130	906.97046	2318.50977	-82.69171	904.12213	2237.83276				197.51761	493.62137	2192.82642	-76.56346	498.69366	2325.84521	-61.70798	178.67549	2419.78442	195.21910	171.58376	2126.09302	
477	4.760	-42.31761	1580.19604	2362.55005	139.67677	1624.23169	2266.35107							242.41327	1380.38684	2272.22852	-79.91069	1389.33423	2116.94629	31.88874	1268.74915	2316.38940				312.78436	1064.82910	2357.79272	-156.09317	1046.96362	2072.85718	249.55865	907.21991	2478.89014	-195.74052	873.44128	2226.20166	153.47922	906.03241	2325.55591	-85.44175	902.40295	2243.69873				196.76743	493.00623	2197.59839	-77.16199	497.28952	2329.48267	-64.62855	179.13390	2429.03809	195.48816	172.04933	2127.79932	
478	4.770	-46.76898	1579.33142	2366.79297	136.71080	1623.13879	2272.62085							239.61060	1379.21362	2279.33618	-82.26707	1387.51917	2121.65723	28.35656	1267.95081	2322.17236				309.65048	1063.68481	2364.74976	-157.41571	1045.11816	2077.45410	244.71638	907.36298	2486.91333	-197.66353	871.50171	2229.42285	150.25104	905.01489	2332.50610	-87.67677	900.71924	2249.03174				195.19011	492.51123	2203.17334	-77.73897	495.38812	2333.95947	-66.82417	178.55209	2434.80493	195.54088	171.62837	2130.50757	
479	4.780	-50.48584	1577.90393	2370.65576	132.99617	1622.38525	2279.53003							236.82787	1378.38672	2284.79663	-84.53714	1386.22058	2126.42505	25.41553	1267.19519	2327.77734				305.01538	1063.36462	2372.77710	-158.50221	1043.44019	2081.10107	240.19666	907.45825	2493.51636	-199.41360	869.34406	2232.27417	147.25134	905.34399	2340.70142	-90.41556	899.52722	2256.03296				193.69838	491.68469	2209.23999	-79.38029	493.69376	2338.85693	-69.58600	177.37627	2439.58398	194.95845	172.43535	2131.11377	
480	4.790	-55.20166	1577.45227	2375.59351	130.14551	1621.03467	2284.60352							233.49951	1377.43738	2290.75635	-87.09934	1384.76563	2130.93945	21.93785	1266.78076	2333.75659				301.87286	1062.69226	2379.17505	-160.07523	1041.78467	2085.72852	234.94019	907.77368	2501.63550	-201.44174	866.57086	2234.76587	144.50954	904.63110	2348.22388	-92.50732	898.37292	2262.54297				193.30598	493.65399	2218.76953	-81.82200	492.59143	2344.43799	-71.31413	175.50293	2443.56299	194.78583	173.17357	2133.40698	
481	4.800	-59.56187	1576.81763	2379.06104	126.05251	1620.71362	2291.48267							230.45717	1376.49060	2296.08667	-89.82259	1383.57727	2135.61353	18.45284	1265.96436	2339.32275				298.70407	1062.35120	2386.56201	-161.71327	1040.57629	2089.83203	230.32178	907.84045	2508.66919	-203.16791	863.64197	2236.78784	141.80255	903.31842	2355.01904	-95.19369	897.47119	2268.85352				192.07504	491.29700	2223.48242	-84.29272	491.87390	2350.76636	-72.25201	172.96391	2446.60376	194.50929	173.23424	2134.14624	
482	4.810	-63.90518	1576.60706	2383.45801	122.95594	1619.59924	2296.37988							227.32942	1375.62671	2302.37939	-92.57093	1382.37781	2140.67651	14.51214	1266.12280	2345.93604							-163.30983	1039.21204	2093.73999	225.90150	907.03137	2515.20483	-205.36914	861.68103	2240.16699	138.84550	903.06824	2363.03174	-97.76095	895.81073	2274.54419				188.81142	492.54053	2231.66724	-87.32305	490.45078	2357.97339	-72.45770	169.56631	2446.91919	194.23982	173.46939	2134.73462	
